<svg xmlns="http://www.w3.org/2000/svg" viewBox="0 0 100 160" width="100%" height="100%">
  <path d="M50 150 Q48 90 50 10" stroke="#5E705B" stroke-width="2.5" fill="none" stroke-linecap="round"/>
  <!-- Pair 1 -->
  <path d="M50 130 C30 120 15 130 10 115 C5 100 25 95 50 110 Z" fill="#A8B7A0" opacity="0.9" />
  <path d="M50 130 C70 120 85 130 90 115 C95 100 75 95 50 110 Z" fill="#5E705B" opacity="0.85" />
  <!-- Pair 2 -->
  <path d="M50 90 C25 80 10 90 8 75 C6 60 28 55 50 70 Z" fill="#A8B7A0" opacity="0.95" />
  <path d="M50 90 C75 80 90 90 92 75 C94 60 72 55 50 70 Z" fill="#5E705B" opacity="0.9" />
  <!-- Pair 3 -->
  <path d="M50 50 C30 40 18 48 16 35 C14 22 32 20 50 32 Z" fill="#A8B7A0" opacity="0.85" />
  <path d="M50 50 C70 40 82 48 84 35 C86 22 68 20 50 32 Z" fill="#5E705B" opacity="0.8" />
  <!-- Top Bud -->
  <path d="M50 10 C45 2 55 2 50 10 Z" fill="#5E705B"/>
</svg>
